#N canvas 72 96 1848 984 12;
#X obj 28 50 inlet~;
#X obj 28 150 outlet~;
#X obj 28 100 lop~ \$2;
#X obj 28 75 hip~ \$1;
#X obj 28 125 *~;
#X obj 252 54 inlet;
#X obj 95 102 *;
#X obj 92 32 metro 50;
#X obj 91 2 loadbang;
#X obj 92 77 expr 100/(\$2-\$1);
#X connect 0 0 3 0;
#X connect 2 0 4 0;
#X connect 3 0 2 0;
#X connect 4 0 1 0;
#X connect 5 0 6 1;
#X connect 6 0 4 1;
#X connect 7 0 9 0;
#X connect 8 0 7 0;
#X connect 9 0 6 0;
